<?xml version="1.0" encoding="UTF-8" standalone="no"?>
<svg width="240.242mm" height="149.225mm"
 viewBox="0 0 681 422.599"
 xmlns="http://www.w3.org/2000/svg" xmlns:xlink="http://www.w3.org/1999/xlink"  version="1.2" baseProfile="tiny">
<title>AutomataEditor</title>
<desc>SVG graph exported by AutomataEditor</desc>
<defs>
</defs>
<g fill="none" stroke="black" vector-effect="non-scaling-stroke" stroke-width="1" fill-rule="evenodd" stroke-linecap="square" stroke-linejoin="bevel" >

<g fill="#ffffff" fill-opacity="1" stroke="none" transform="matrix(1,0,0,1,0,0)"
font-family="MS Shell Dlg 2" font-size="8.25" font-weight="400" font-style="normal" 
>
<path fill-rule="evenodd" d="M0,0 L681,0 L681,422.599 L0,422.599 L0,0"/>
</g>

<g fill="#ffffff" fill-opacity="1" stroke="none" transform="matrix(1,0,0,1,0,0)"
font-family="MS Shell Dlg 2" font-size="8.25" font-weight="400" font-style="normal" 
>
</g>

<g fill="#ffffff" fill-opacity="1" stroke="none" transform="matrix(1,0,0,1,0,0)"
font-family="MS Shell Dlg 2" font-size="8.25" font-weight="400" font-style="normal" 
>
</g>

<g fill="#ffffff" fill-opacity="1" stroke="none" transform="matrix(0.997642,0,0,0.997642,617.54,360.149)"
font-family="MS Shell Dlg 2" font-size="12" font-weight="400" font-style="normal" 
>
</g>

<g fill="#ffffff" fill-opacity="1" stroke="#000000" stroke-opacity="1" stroke-width="2.88" stroke-linecap="square" stroke-linejoin="bevel" transform="matrix(0.997642,0,0,0.997642,144.658,61.8538)"
font-family="MS Shell Dlg 2" font-size="12" font-weight="400" font-style="normal" 
>
<path fill-rule="evenodd" d="M18,0 C18,9.94113 9.94113,18 0,18 C-9.94113,18 -18,9.94113 -18,0 C-18,-9.94113 -9.94113,-18 0,-18 C9.94113,-18 18,-9.94113 18,0 "/>
</g>

<g fill="#ffffff" fill-opacity="1" stroke="none" transform="matrix(0.997642,0,0,0.997642,617.54,360.149)"
font-family="MS Shell Dlg 2" font-size="12" font-weight="400" font-style="normal" 
>
</g>

<g fill="#ffffff" fill-opacity="1" stroke="#000000" stroke-opacity="1" stroke-width="2.4192" stroke-linecap="square" stroke-linejoin="bevel" transform="matrix(0.997642,0,0,0.997642,344.186,61.8538)"
font-family="MS Shell Dlg 2" font-size="12" font-weight="400" font-style="normal" 
>
<path fill-rule="evenodd" d="M21.1392,0 C21.1392,11.6749 11.6749,21.1392 0,21.1392 C-11.6749,21.1392 -21.1392,11.6749 -21.1392,0 C-21.1392,-11.6749 -11.6749,-21.1392 0,-21.1392 C11.6749,-21.1392 21.1392,-11.6749 21.1392,0 "/>
</g>

<g fill="#ffffff" fill-opacity="1" stroke="#000000" stroke-opacity="1" stroke-width="2.4192" stroke-linecap="square" stroke-linejoin="bevel" transform="matrix(0.997642,0,0,0.997642,344.186,61.8538)"
font-family="MS Shell Dlg 2" font-size="12" font-weight="400" font-style="normal" 
>
<path fill-rule="evenodd" d="M17.28,0 C17.28,9.54348 9.54348,17.28 0,17.28 C-9.54348,17.28 -17.28,9.54348 -17.28,0 C-17.28,-9.54348 -9.54348,-17.28 0,-17.28 C9.54348,-17.28 17.28,-9.54348 17.28,0 "/>
</g>

<g fill="#ffffff" fill-opacity="1" stroke="#000000" stroke-opacity="1" vector-effect="non-scaling-stroke" stroke-width="1" stroke-linecap="square" stroke-linejoin="bevel" transform="matrix(0.997642,0,0,0.997642,344.186,61.8538)"
font-family="Arial" font-size="22" font-weight="400" font-style="normal" 
>
<text fill="#000000" fill-opacity="1" stroke="none" xml:space="preserve" x="-3" y="8" font-family="Arial" font-size="22" font-weight="400" font-style="normal" 
 >f</text>
</g>

<g fill="#ffffff" fill-opacity="1" stroke="none" transform="matrix(0.997642,0,0,0.997642,617.54,360.149)"
font-family="MS Shell Dlg 2" font-size="12" font-weight="400" font-style="normal" 
>
</g>

<g fill="#ffffff" fill-opacity="1" stroke="#000000" stroke-opacity="1" stroke-width="2.88" stroke-linecap="square" stroke-linejoin="bevel" transform="matrix(0.997642,0,0,0.997642,64.8467,61.8538)"
font-family="MS Shell Dlg 2" font-size="12" font-weight="400" font-style="normal" 
>
<path fill-rule="evenodd" d="M18,0 C18,9.94113 9.94113,18 0,18 C-9.94113,18 -18,9.94113 -18,0 C-18,-9.94113 -9.94113,-18 0,-18 C9.94113,-18 18,-9.94113 18,0 "/>
</g>

<g fill="#ffffff" fill-opacity="1" stroke="#000000" stroke-opacity="1" vector-effect="non-scaling-stroke" stroke-width="1" stroke-linecap="square" stroke-linejoin="bevel" transform="matrix(0.997642,0,0,0.997642,64.8467,61.8538)"
font-family="Arial" font-size="22" font-weight="400" font-style="normal" 
>
<text fill="#000000" fill-opacity="1" stroke="none" xml:space="preserve" x="-5" y="8" font-family="Arial" font-size="22" font-weight="400" font-style="normal" 
 >s</text>
</g>

<g fill="#ffffff" fill-opacity="1" stroke="none" transform="matrix(0.997642,0,0,0.997642,617.54,360.149)"
font-family="MS Shell Dlg 2" font-size="12" font-weight="400" font-style="normal" 
>
</g>

<g fill="#ffffff" fill-opacity="1" stroke="#000000" stroke-opacity="1" stroke-width="2.88" stroke-linecap="square" stroke-linejoin="bevel" transform="matrix(0.997642,0,0,0.997642,264.375,61.8538)"
font-family="MS Shell Dlg 2" font-size="12" font-weight="400" font-style="normal" 
>
<path fill-rule="evenodd" d="M18,0 C18,9.94113 9.94113,18 0,18 C-9.94113,18 -18,9.94113 -18,0 C-18,-9.94113 -9.94113,-18 0,-18 C9.94113,-18 18,-9.94113 18,0 "/>
</g>

<g fill="#ffffff" fill-opacity="1" stroke="none" transform="matrix(0.997642,0,0,0.997642,617.54,360.149)"
font-family="MS Shell Dlg 2" font-size="12" font-weight="400" font-style="normal" 
>
</g>

<g fill="none" stroke="#000000" stroke-opacity="1" stroke-width="2" stroke-linecap="square" stroke-linejoin="bevel" transform="matrix(0.997642,0,0,0.997642,617.54,360.149)"
font-family="MS Shell Dlg 2" font-size="12" font-weight="400" font-style="normal" 
>
<path fill-rule="evenodd" d="M-454.56,-299 L-373.44,-299"/>
</g>

<g fill="#000000" fill-opacity="1" stroke="#000000" stroke-opacity="1" stroke-width="2" stroke-linecap="square" stroke-linejoin="bevel" transform="matrix(0.997642,0,0,0.997642,617.54,360.149)"
font-family="MS Shell Dlg 2" font-size="12" font-weight="400" font-style="normal" 
>
<path fill-rule="evenodd" d="M-373.44,-299 L-383.44,-296 L-381.44,-299 L-383.44,-302 L-373.44,-299"/>
</g>

<g fill="#ffffff" fill-opacity="1" stroke="none" transform="matrix(0.997642,0,0,0.997642,617.54,360.149)"
font-family="MS Shell Dlg 2" font-size="12" font-weight="400" font-style="normal" 
>
</g>

<g fill="none" stroke="#000000" stroke-opacity="1" stroke-width="2" stroke-linecap="square" stroke-linejoin="bevel" transform="matrix(0.997642,0,0,0.997642,617.54,360.149)"
font-family="MS Shell Dlg 2" font-size="12" font-weight="400" font-style="normal" 
>
<path fill-rule="evenodd" d="M-537.234,-289.32 C-453.014,-240.027 -378.074,-239.582 -293.274,-287.872 "/>
</g>

<g fill="#000000" fill-opacity="1" stroke="#000000" stroke-opacity="1" stroke-width="2" stroke-linecap="square" stroke-linejoin="bevel" transform="matrix(0.997642,0,0,0.997642,617.54,360.149)"
font-family="MS Shell Dlg 2" font-size="12" font-weight="400" font-style="normal" 
>
<path fill-rule="evenodd" d="M-293.274,-287.872 L-300.581,-280.414 L-300.279,-284.007 L-303.479,-285.668 L-293.274,-287.872"/>
</g>

<g fill="#ffffff" fill-opacity="1" stroke="none" transform="matrix(0.997642,0,0,0.997642,617.54,360.149)"
font-family="MS Shell Dlg 2" font-size="12" font-weight="400" font-style="normal" 
>
</g>

<g fill="none" stroke="#000000" stroke-opacity="1" stroke-width="2" stroke-linecap="square" stroke-linejoin="bevel" transform="matrix(0,-0.997642,0.997642,0,64.8467,61.8538)"
font-family="MS Shell Dlg 2" font-size="12" font-weight="400" font-style="normal" 
>
<path fill-rule="evenodd" d="M0,-58 L0,-18"/>
</g>

<g fill="#000000" fill-opacity="1" stroke="#000000" stroke-opacity="1" stroke-width="2" stroke-linecap="square" stroke-linejoin="bevel" transform="matrix(0,-0.997642,0.997642,0,64.8467,61.8538)"
font-family="MS Shell Dlg 2" font-size="12" font-weight="400" font-style="normal" 
>
<path fill-rule="evenodd" d="M0,-18 L-3,-28 L0,-26 L3,-28 L0,-18"/>
</g>

<g fill="#ffffff" fill-opacity="1" stroke="none" transform="matrix(0.997642,0,0,0.997642,617.54,360.149)"
font-family="MS Shell Dlg 2" font-size="12" font-weight="400" font-style="normal" 
>
</g>

<g fill="none" stroke="#000000" stroke-opacity="1" stroke-width="2" stroke-linecap="square" stroke-linejoin="bevel" transform="matrix(0.997642,0,0,0.997642,617.54,360.149)"
font-family="MS Shell Dlg 2" font-size="12" font-weight="400" font-style="normal" 
>
<path fill-rule="evenodd" d="M-534.56,-299 L-493.44,-299"/>
</g>

<g fill="#000000" fill-opacity="1" stroke="#000000" stroke-opacity="1" stroke-width="2" stroke-linecap="square" stroke-linejoin="bevel" transform="matrix(0.997642,0,0,0.997642,617.54,360.149)"
font-family="MS Shell Dlg 2" font-size="12" font-weight="400" font-style="normal" 
>
<path fill-rule="evenodd" d="M-493.44,-299 L-503.44,-296 L-501.44,-299 L-503.44,-302 L-493.44,-299"/>
</g>

<g fill="#ffffff" fill-opacity="1" stroke="none" transform="matrix(0.997642,0,0,0.997642,617.54,360.149)"
font-family="MS Shell Dlg 2" font-size="12" font-weight="400" font-style="normal" 
>
</g>

<g fill="none" stroke="#000000" stroke-opacity="1" stroke-width="2" stroke-linecap="square" stroke-linejoin="bevel" transform="matrix(0.997642,0,0,0.997642,617.54,360.149)"
font-family="MS Shell Dlg 2" font-size="12" font-weight="400" font-style="normal" 
>
<path fill-rule="evenodd" d="M-334.56,-299 L-296.349,-299"/>
</g>

<g fill="#000000" fill-opacity="1" stroke="#000000" stroke-opacity="1" stroke-width="2" stroke-linecap="square" stroke-linejoin="bevel" transform="matrix(0.997642,0,0,0.997642,617.54,360.149)"
font-family="MS Shell Dlg 2" font-size="12" font-weight="400" font-style="normal" 
>
<path fill-rule="evenodd" d="M-296.349,-299 L-306.349,-296 L-304.349,-299 L-306.349,-302 L-296.349,-299"/>
</g>

<g fill="#ffffff" fill-opacity="1" stroke="none" transform="matrix(0.997642,0,0,0.997642,617.54,360.149)"
font-family="MS Shell Dlg 2" font-size="12" font-weight="400" font-style="normal" 
>
</g>

<g fill="none" stroke="#000000" stroke-opacity="1" stroke-width="2" stroke-linecap="square" stroke-linejoin="bevel" transform="matrix(0.997642,0,0,0.997642,617.54,360.149)"
font-family="MS Shell Dlg 2" font-size="12" font-weight="400" font-style="normal" 
>
<path fill-rule="evenodd" d="M-370.766,-308.68 C-400.719,-325.973 -427.281,-325.973 -457.234,-308.68 "/>
</g>

<g fill="#000000" fill-opacity="1" stroke="#000000" stroke-opacity="1" stroke-width="2" stroke-linecap="square" stroke-linejoin="bevel" transform="matrix(0.997642,0,0,0.997642,617.54,360.149)"
font-family="MS Shell Dlg 2" font-size="12" font-weight="400" font-style="normal" 
>
<path fill-rule="evenodd" d="M-457.234,-308.68 L-449.777,-315.987 L-450.152,-312.401 L-446.987,-310.675 L-457.234,-308.68"/>
</g>

<g fill="#ffffff" fill-opacity="1" stroke="none" transform="matrix(0.997642,0,0,0.997642,617.54,360.149)"
font-family="MS Shell Dlg 2" font-size="12" font-weight="400" font-style="normal" 
>
</g>

<g fill="#ffffff" fill-opacity="1" stroke="#000000" stroke-opacity="1" vector-effect="non-scaling-stroke" stroke-width="1" stroke-linecap="square" stroke-linejoin="bevel" transform="matrix(0.997642,0,0,0.997642,194.484,32.4233)"
font-family="Arial" font-size="22" font-weight="400" font-style="normal" 
>
<text fill="#000000" fill-opacity="1" stroke="none" xml:space="preserve" x="0" y="25" font-family="Arial" font-size="22" font-weight="400" font-style="normal" 
 >b</text>
</g>

<g fill="#ffffff" fill-opacity="1" stroke="none" transform="matrix(0.997642,0,0,0.997642,617.54,360.149)"
font-family="MS Shell Dlg 2" font-size="12" font-weight="400" font-style="normal" 
>
</g>

<g fill="#ffffff" fill-opacity="1" stroke="#000000" stroke-opacity="1" vector-effect="non-scaling-stroke" stroke-width="1" stroke-linecap="square" stroke-linejoin="bevel" transform="matrix(0.997642,0,0,0.997642,173.521,112.587)"
font-family="Arial" font-size="22" font-weight="400" font-style="normal" 
>
<text fill="#000000" fill-opacity="1" stroke="none" xml:space="preserve" x="0" y="25" font-family="Arial" font-size="22" font-weight="400" font-style="normal" 
 >ε</text>
</g>

<g fill="#ffffff" fill-opacity="1" stroke="none" transform="matrix(0.997642,0,0,0.997642,617.54,360.149)"
font-family="MS Shell Dlg 2" font-size="12" font-weight="400" font-style="normal" 
>
</g>

<g fill="#ffffff" fill-opacity="1" stroke="#000000" stroke-opacity="1" vector-effect="non-scaling-stroke" stroke-width="1" stroke-linecap="square" stroke-linejoin="bevel" transform="matrix(0.997642,0,0,0.997642,97.713,32.4233)"
font-family="Arial" font-size="22" font-weight="400" font-style="normal" 
>
<text fill="#000000" fill-opacity="1" stroke="none" xml:space="preserve" x="0" y="25" font-family="Arial" font-size="22" font-weight="400" font-style="normal" 
 >ε</text>
</g>

<g fill="#ffffff" fill-opacity="1" stroke="none" transform="matrix(0.997642,0,0,0.997642,617.54,360.149)"
font-family="MS Shell Dlg 2" font-size="12" font-weight="400" font-style="normal" 
>
</g>

<g fill="#ffffff" fill-opacity="1" stroke="#000000" stroke-opacity="1" vector-effect="non-scaling-stroke" stroke-width="1" stroke-linecap="square" stroke-linejoin="bevel" transform="matrix(0.997642,0,0,0.997642,295.935,32.4233)"
font-family="Arial" font-size="22" font-weight="400" font-style="normal" 
>
<text fill="#000000" fill-opacity="1" stroke="none" xml:space="preserve" x="0" y="25" font-family="Arial" font-size="22" font-weight="400" font-style="normal" 
 >ε</text>
</g>

<g fill="#ffffff" fill-opacity="1" stroke="none" transform="matrix(0.997642,0,0,0.997642,617.54,360.149)"
font-family="MS Shell Dlg 2" font-size="12" font-weight="400" font-style="normal" 
>
</g>

<g fill="#ffffff" fill-opacity="1" stroke="#000000" stroke-opacity="1" vector-effect="non-scaling-stroke" stroke-width="1" stroke-linecap="square" stroke-linejoin="bevel" transform="matrix(0.997642,0,0,0.997642,208.601,10.377)"
font-family="Arial" font-size="22" font-weight="400" font-style="normal" 
>
<text fill="#000000" fill-opacity="1" stroke="none" xml:space="preserve" x="0" y="25" font-family="Arial" font-size="22" font-weight="400" font-style="normal" 
 >ε</text>
</g>

<g fill="#ffffff" fill-opacity="1" stroke="none" transform="matrix(0.997642,0,0,0.997642,617.54,360.149)"
font-family="MS Shell Dlg 2" font-size="12" font-weight="400" font-style="normal" 
>
</g>

<g fill="#ffffff" fill-opacity="1" stroke="none" transform="matrix(1,0,0,1,0,0)"
font-family="MS Shell Dlg 2" font-size="8.25" font-weight="400" font-style="normal" 
>
</g>
</g>
</svg>
