<?xml version="1.0" encoding="UTF-8" standalone="no"?>
<svg width="182.033mm" height="110.067mm"
 viewBox="0 0 516 311.598"
 xmlns="http://www.w3.org/2000/svg" xmlns:xlink="http://www.w3.org/1999/xlink"  version="1.2" baseProfile="tiny">
<title>AutomataEditor</title>
<desc>SVG graph exported by AutomataEditor</desc>
<defs>
</defs>
<g fill="none" stroke="black" vector-effect="non-scaling-stroke" stroke-width="1" fill-rule="evenodd" stroke-linecap="square" stroke-linejoin="bevel" >

<g fill="#ffffff" fill-opacity="1" stroke="none" transform="matrix(1,0,0,1,0,0)"
font-family="MS Shell Dlg 2" font-size="8.25" font-weight="400" font-style="normal" 
>
<path fill-rule="evenodd" d="M0,0 L516,0 L516,311.598 L0,311.598 L0,0"/>
</g>

<g fill="#ffffff" fill-opacity="1" stroke="none" transform="matrix(1,0,0,1,0,0)"
font-family="MS Shell Dlg 2" font-size="8.25" font-weight="400" font-style="normal" 
>
</g>

<g fill="#ffffff" fill-opacity="1" stroke="none" transform="matrix(1,0,0,1,0,0)"
font-family="MS Shell Dlg 2" font-size="8.25" font-weight="400" font-style="normal" 
>
</g>

<g fill="#ffffff" fill-opacity="1" stroke="none" transform="matrix(0.996805,0,0,0.996805,452.55,249.201)"
font-family="MS Shell Dlg 2" font-size="12" font-weight="400" font-style="normal" 
>
</g>

<g fill="#ffffff" fill-opacity="1" stroke="#000000" stroke-opacity="1" stroke-width="2.88" stroke-linecap="square" stroke-linejoin="bevel" transform="matrix(0.996805,0,0,0.996805,64.7923,61.8019)"
font-family="MS Shell Dlg 2" font-size="12" font-weight="400" font-style="normal" 
>
<path fill-rule="evenodd" d="M18,0 C18,9.94113 9.94113,18 0,18 C-9.94113,18 -18,9.94113 -18,0 C-18,-9.94113 -9.94113,-18 0,-18 C9.94113,-18 18,-9.94113 18,0 "/>
</g>

<g fill="#ffffff" fill-opacity="1" stroke="#000000" stroke-opacity="1" vector-effect="non-scaling-stroke" stroke-width="1" stroke-linecap="square" stroke-linejoin="bevel" transform="matrix(0.996805,0,0,0.996805,64.7923,61.8019)"
font-family="Arial" font-size="22" font-weight="400" font-style="normal" 
>
<text fill="#000000" fill-opacity="1" stroke="none" xml:space="preserve" x="-5" y="8" font-family="Arial" font-size="22" font-weight="400" font-style="normal" 
 >s</text>
</g>

<g fill="#ffffff" fill-opacity="1" stroke="none" transform="matrix(0.996805,0,0,0.996805,452.55,249.201)"
font-family="MS Shell Dlg 2" font-size="12" font-weight="400" font-style="normal" 
>
</g>

<g fill="#ffffff" fill-opacity="1" stroke="#000000" stroke-opacity="1" stroke-width="2.88" stroke-linecap="square" stroke-linejoin="bevel" transform="matrix(0.996805,0,0,0.996805,264.153,61.8019)"
font-family="MS Shell Dlg 2" font-size="12" font-weight="400" font-style="normal" 
>
<path fill-rule="evenodd" d="M18,0 C18,9.94113 9.94113,18 0,18 C-9.94113,18 -18,9.94113 -18,0 C-18,-9.94113 -9.94113,-18 0,-18 C9.94113,-18 18,-9.94113 18,0 "/>
</g>

<g fill="#ffffff" fill-opacity="1" stroke="none" transform="matrix(0.996805,0,0,0.996805,452.55,249.201)"
font-family="MS Shell Dlg 2" font-size="12" font-weight="400" font-style="normal" 
>
</g>

<g fill="#ffffff" fill-opacity="1" stroke="#000000" stroke-opacity="1" stroke-width="2.88" stroke-linecap="square" stroke-linejoin="bevel" transform="matrix(0.996805,0,0,0.996805,144.537,61.8019)"
font-family="MS Shell Dlg 2" font-size="12" font-weight="400" font-style="normal" 
>
<path fill-rule="evenodd" d="M18,0 C18,9.94113 9.94113,18 0,18 C-9.94113,18 -18,9.94113 -18,0 C-18,-9.94113 -9.94113,-18 0,-18 C9.94113,-18 18,-9.94113 18,0 "/>
</g>

<g fill="#ffffff" fill-opacity="1" stroke="none" transform="matrix(0.996805,0,0,0.996805,452.55,249.201)"
font-family="MS Shell Dlg 2" font-size="12" font-weight="400" font-style="normal" 
>
</g>

<g fill="#ffffff" fill-opacity="1" stroke="#000000" stroke-opacity="1" stroke-width="2.4192" stroke-linecap="square" stroke-linejoin="bevel" transform="matrix(0.996805,0,0,0.996805,343.898,61.8019)"
font-family="MS Shell Dlg 2" font-size="12" font-weight="400" font-style="normal" 
>
<path fill-rule="evenodd" d="M21.1392,0 C21.1392,11.6749 11.6749,21.1392 0,21.1392 C-11.6749,21.1392 -21.1392,11.6749 -21.1392,0 C-21.1392,-11.6749 -11.6749,-21.1392 0,-21.1392 C11.6749,-21.1392 21.1392,-11.6749 21.1392,0 "/>
</g>

<g fill="#ffffff" fill-opacity="1" stroke="#000000" stroke-opacity="1" stroke-width="2.4192" stroke-linecap="square" stroke-linejoin="bevel" transform="matrix(0.996805,0,0,0.996805,343.898,61.8019)"
font-family="MS Shell Dlg 2" font-size="12" font-weight="400" font-style="normal" 
>
<path fill-rule="evenodd" d="M17.28,0 C17.28,9.54348 9.54348,17.28 0,17.28 C-9.54348,17.28 -17.28,9.54348 -17.28,0 C-17.28,-9.54348 -9.54348,-17.28 0,-17.28 C9.54348,-17.28 17.28,-9.54348 17.28,0 "/>
</g>

<g fill="#ffffff" fill-opacity="1" stroke="#000000" stroke-opacity="1" vector-effect="non-scaling-stroke" stroke-width="1" stroke-linecap="square" stroke-linejoin="bevel" transform="matrix(0.996805,0,0,0.996805,343.898,61.8019)"
font-family="Arial" font-size="22" font-weight="400" font-style="normal" 
>
<text fill="#000000" fill-opacity="1" stroke="none" xml:space="preserve" x="-3" y="8" font-family="Arial" font-size="22" font-weight="400" font-style="normal" 
 >f</text>
</g>

<g fill="#ffffff" fill-opacity="1" stroke="none" transform="matrix(0.996805,0,0,0.996805,452.55,249.201)"
font-family="MS Shell Dlg 2" font-size="12" font-weight="400" font-style="normal" 
>
</g>

<g fill="none" stroke="#000000" stroke-opacity="1" stroke-width="2" stroke-linecap="square" stroke-linejoin="bevel" transform="matrix(0.996805,0,0,0.996805,452.55,249.201)"
font-family="MS Shell Dlg 2" font-size="12" font-weight="400" font-style="normal" 
>
<path fill-rule="evenodd" d="M-372.234,-178.32 C-288.014,-129.027 -213.074,-128.582 -128.274,-176.872 "/>
</g>

<g fill="#000000" fill-opacity="1" stroke="#000000" stroke-opacity="1" stroke-width="2" stroke-linecap="square" stroke-linejoin="bevel" transform="matrix(0.996805,0,0,0.996805,452.55,249.201)"
font-family="MS Shell Dlg 2" font-size="12" font-weight="400" font-style="normal" 
>
<path fill-rule="evenodd" d="M-128.274,-176.872 L-135.581,-169.414 L-135.279,-173.007 L-138.479,-174.668 L-128.274,-176.872"/>
</g>

<g fill="#ffffff" fill-opacity="1" stroke="none" transform="matrix(0.996805,0,0,0.996805,452.55,249.201)"
font-family="MS Shell Dlg 2" font-size="12" font-weight="400" font-style="normal" 
>
</g>

<g fill="none" stroke="#000000" stroke-opacity="1" stroke-width="2" stroke-linecap="square" stroke-linejoin="bevel" transform="matrix(0.996805,0,0,0.996805,452.55,249.201)"
font-family="MS Shell Dlg 2" font-size="12" font-weight="400" font-style="normal" 
>
<path fill-rule="evenodd" d="M-169.56,-188 L-131.349,-188"/>
</g>

<g fill="#000000" fill-opacity="1" stroke="#000000" stroke-opacity="1" stroke-width="2" stroke-linecap="square" stroke-linejoin="bevel" transform="matrix(0.996805,0,0,0.996805,452.55,249.201)"
font-family="MS Shell Dlg 2" font-size="12" font-weight="400" font-style="normal" 
>
<path fill-rule="evenodd" d="M-131.349,-188 L-141.349,-185 L-139.349,-188 L-141.349,-191 L-131.349,-188"/>
</g>

<g fill="#ffffff" fill-opacity="1" stroke="none" transform="matrix(0.996805,0,0,0.996805,452.55,249.201)"
font-family="MS Shell Dlg 2" font-size="12" font-weight="400" font-style="normal" 
>
</g>

<g fill="none" stroke="#000000" stroke-opacity="1" stroke-width="2" stroke-linecap="square" stroke-linejoin="bevel" transform="matrix(0.996805,0,0,0.996805,452.55,249.201)"
font-family="MS Shell Dlg 2" font-size="12" font-weight="400" font-style="normal" 
>
<path fill-rule="evenodd" d="M-205.766,-197.68 C-235.719,-214.973 -262.281,-214.973 -292.234,-197.68 "/>
</g>

<g fill="#000000" fill-opacity="1" stroke="#000000" stroke-opacity="1" stroke-width="2" stroke-linecap="square" stroke-linejoin="bevel" transform="matrix(0.996805,0,0,0.996805,452.55,249.201)"
font-family="MS Shell Dlg 2" font-size="12" font-weight="400" font-style="normal" 
>
<path fill-rule="evenodd" d="M-292.234,-197.68 L-284.777,-204.987 L-285.152,-201.401 L-281.987,-199.675 L-292.234,-197.68"/>
</g>

<g fill="#ffffff" fill-opacity="1" stroke="none" transform="matrix(0.996805,0,0,0.996805,452.55,249.201)"
font-family="MS Shell Dlg 2" font-size="12" font-weight="400" font-style="normal" 
>
</g>

<g fill="none" stroke="#000000" stroke-opacity="1" stroke-width="2" stroke-linecap="square" stroke-linejoin="bevel" transform="matrix(0,-0.996805,0.996805,0,64.7923,61.8019)"
font-family="MS Shell Dlg 2" font-size="12" font-weight="400" font-style="normal" 
>
<path fill-rule="evenodd" d="M0,-58 L0,-18"/>
</g>

<g fill="#000000" fill-opacity="1" stroke="#000000" stroke-opacity="1" stroke-width="2" stroke-linecap="square" stroke-linejoin="bevel" transform="matrix(0,-0.996805,0.996805,0,64.7923,61.8019)"
font-family="MS Shell Dlg 2" font-size="12" font-weight="400" font-style="normal" 
>
<path fill-rule="evenodd" d="M0,-18 L-3,-28 L0,-26 L3,-28 L0,-18"/>
</g>

<g fill="#ffffff" fill-opacity="1" stroke="none" transform="matrix(0.996805,0,0,0.996805,452.55,249.201)"
font-family="MS Shell Dlg 2" font-size="12" font-weight="400" font-style="normal" 
>
</g>

<g fill="none" stroke="#000000" stroke-opacity="1" stroke-width="2" stroke-linecap="square" stroke-linejoin="bevel" transform="matrix(0.996805,0,0,0.996805,452.55,249.201)"
font-family="MS Shell Dlg 2" font-size="12" font-weight="400" font-style="normal" 
>
<path fill-rule="evenodd" d="M-289.56,-188 L-208.44,-188"/>
</g>

<g fill="#000000" fill-opacity="1" stroke="#000000" stroke-opacity="1" stroke-width="2" stroke-linecap="square" stroke-linejoin="bevel" transform="matrix(0.996805,0,0,0.996805,452.55,249.201)"
font-family="MS Shell Dlg 2" font-size="12" font-weight="400" font-style="normal" 
>
<path fill-rule="evenodd" d="M-208.44,-188 L-218.44,-185 L-216.44,-188 L-218.44,-191 L-208.44,-188"/>
</g>

<g fill="#ffffff" fill-opacity="1" stroke="none" transform="matrix(0.996805,0,0,0.996805,452.55,249.201)"
font-family="MS Shell Dlg 2" font-size="12" font-weight="400" font-style="normal" 
>
</g>

<g fill="none" stroke="#000000" stroke-opacity="1" stroke-width="2" stroke-linecap="square" stroke-linejoin="bevel" transform="matrix(0.996805,0,0,0.996805,452.55,249.201)"
font-family="MS Shell Dlg 2" font-size="12" font-weight="400" font-style="normal" 
>
<path fill-rule="evenodd" d="M-369.56,-188 L-328.44,-188"/>
</g>

<g fill="#000000" fill-opacity="1" stroke="#000000" stroke-opacity="1" stroke-width="2" stroke-linecap="square" stroke-linejoin="bevel" transform="matrix(0.996805,0,0,0.996805,452.55,249.201)"
font-family="MS Shell Dlg 2" font-size="12" font-weight="400" font-style="normal" 
>
<path fill-rule="evenodd" d="M-328.44,-188 L-338.44,-185 L-336.44,-188 L-338.44,-191 L-328.44,-188"/>
</g>

<g fill="#ffffff" fill-opacity="1" stroke="none" transform="matrix(0.996805,0,0,0.996805,452.55,249.201)"
font-family="MS Shell Dlg 2" font-size="12" font-weight="400" font-style="normal" 
>
</g>

<g fill="#ffffff" fill-opacity="1" stroke="#000000" stroke-opacity="1" vector-effect="non-scaling-stroke" stroke-width="1" stroke-linecap="square" stroke-linejoin="bevel" transform="matrix(0.996805,0,0,0.996805,173.375,112.492)"
font-family="Arial" font-size="22" font-weight="400" font-style="normal" 
>
<text fill="#000000" fill-opacity="1" stroke="none" xml:space="preserve" x="0" y="25" font-family="Arial" font-size="22" font-weight="400" font-style="normal" 
 >ε</text>
</g>

<g fill="#ffffff" fill-opacity="1" stroke="none" transform="matrix(0.996805,0,0,0.996805,452.55,249.201)"
font-family="MS Shell Dlg 2" font-size="12" font-weight="400" font-style="normal" 
>
</g>

<g fill="#ffffff" fill-opacity="1" stroke="#000000" stroke-opacity="1" vector-effect="non-scaling-stroke" stroke-width="1" stroke-linecap="square" stroke-linejoin="bevel" transform="matrix(0.996805,0,0,0.996805,295.687,32.3962)"
font-family="Arial" font-size="22" font-weight="400" font-style="normal" 
>
<text fill="#000000" fill-opacity="1" stroke="none" xml:space="preserve" x="0" y="25" font-family="Arial" font-size="22" font-weight="400" font-style="normal" 
 >ε</text>
</g>

<g fill="#ffffff" fill-opacity="1" stroke="none" transform="matrix(0.996805,0,0,0.996805,452.55,249.201)"
font-family="MS Shell Dlg 2" font-size="12" font-weight="400" font-style="normal" 
>
</g>

<g fill="#ffffff" fill-opacity="1" stroke="#000000" stroke-opacity="1" vector-effect="non-scaling-stroke" stroke-width="1" stroke-linecap="square" stroke-linejoin="bevel" transform="matrix(0.996805,0,0,0.996805,208.426,10.3683)"
font-family="Arial" font-size="22" font-weight="400" font-style="normal" 
>
<text fill="#000000" fill-opacity="1" stroke="none" xml:space="preserve" x="0" y="25" font-family="Arial" font-size="22" font-weight="400" font-style="normal" 
 >ε</text>
</g>

<g fill="#ffffff" fill-opacity="1" stroke="none" transform="matrix(0.996805,0,0,0.996805,452.55,249.201)"
font-family="MS Shell Dlg 2" font-size="12" font-weight="400" font-style="normal" 
>
</g>

<g fill="#ffffff" fill-opacity="1" stroke="#000000" stroke-opacity="1" vector-effect="non-scaling-stroke" stroke-width="1" stroke-linecap="square" stroke-linejoin="bevel" transform="matrix(0.996805,0,0,0.996805,195.318,32.3962)"
font-family="Arial" font-size="22" font-weight="400" font-style="normal" 
>
<text fill="#000000" fill-opacity="1" stroke="none" xml:space="preserve" x="0" y="25" font-family="Arial" font-size="22" font-weight="400" font-style="normal" 
 >c</text>
</g>

<g fill="#ffffff" fill-opacity="1" stroke="none" transform="matrix(0.996805,0,0,0.996805,452.55,249.201)"
font-family="MS Shell Dlg 2" font-size="12" font-weight="400" font-style="normal" 
>
</g>

<g fill="#ffffff" fill-opacity="1" stroke="#000000" stroke-opacity="1" vector-effect="non-scaling-stroke" stroke-width="1" stroke-linecap="square" stroke-linejoin="bevel" transform="matrix(0.996805,0,0,0.996805,97.6311,32.3962)"
font-family="Arial" font-size="22" font-weight="400" font-style="normal" 
>
<text fill="#000000" fill-opacity="1" stroke="none" xml:space="preserve" x="0" y="25" font-family="Arial" font-size="22" font-weight="400" font-style="normal" 
 >ε</text>
</g>

<g fill="#ffffff" fill-opacity="1" stroke="none" transform="matrix(0.996805,0,0,0.996805,452.55,249.201)"
font-family="MS Shell Dlg 2" font-size="12" font-weight="400" font-style="normal" 
>
</g>

<g fill="#ffffff" fill-opacity="1" stroke="none" transform="matrix(1,0,0,1,0,0)"
font-family="MS Shell Dlg 2" font-size="8.25" font-weight="400" font-style="normal" 
>
</g>
</g>
</svg>
