<?xml version="1.0" encoding="UTF-8" standalone="no"?>
<svg width="160.514mm" height="103.364mm"
 viewBox="0 0 455.44 293.453"
 xmlns="http://www.w3.org/2000/svg" xmlns:xlink="http://www.w3.org/1999/xlink"  version="1.2" baseProfile="tiny">
<title>AutomataEditor</title>
<desc>SVG graph exported by AutomataEditor</desc>
<defs>
</defs>
<g fill="none" stroke="black" vector-effect="non-scaling-stroke" stroke-width="1" fill-rule="evenodd" stroke-linecap="square" stroke-linejoin="bevel" >

<g fill="#ffffff" fill-opacity="1" stroke="none" transform="matrix(1,0,0,1,0,0)"
font-family="MS Shell Dlg 2" font-size="8.25" font-weight="400" font-style="normal" 
>
<path fill-rule="evenodd" d="M0,0 L455.44,0 L455.44,293.453 L0,293.453 L0,0"/>
</g>

<g fill="#ffffff" fill-opacity="1" stroke="none" transform="matrix(1,0,0,1,0,0)"
font-family="MS Shell Dlg 2" font-size="8.25" font-weight="400" font-style="normal" 
>
</g>

<g fill="#ffffff" fill-opacity="1" stroke="none" transform="matrix(1,0,0,1,0,0)"
font-family="MS Shell Dlg 2" font-size="8.25" font-weight="400" font-style="normal" 
>
</g>

<g fill="#ffffff" fill-opacity="1" stroke="none" transform="matrix(0.996599,0,0,0.996599,391.663,230.214)"
font-family="MS Shell Dlg 2" font-size="12" font-weight="400" font-style="normal" 
>
</g>

<g fill="#ffffff" fill-opacity="1" stroke="#000000" stroke-opacity="1" stroke-width="2.4192" stroke-linecap="square" stroke-linejoin="bevel" transform="matrix(0.996599,0,0,0.996599,156.466,183.374)"
font-family="MS Shell Dlg 2" font-size="12" font-weight="400" font-style="normal" 
>
<path fill-rule="evenodd" d="M21.1392,0 C21.1392,11.6749 11.6749,21.1392 0,21.1392 C-11.6749,21.1392 -21.1392,11.6749 -21.1392,0 C-21.1392,-11.6749 -11.6749,-21.1392 0,-21.1392 C11.6749,-21.1392 21.1392,-11.6749 21.1392,0 "/>
</g>

<g fill="#ffffff" fill-opacity="1" stroke="#000000" stroke-opacity="1" stroke-width="2.4192" stroke-linecap="square" stroke-linejoin="bevel" transform="matrix(0.996599,0,0,0.996599,156.466,183.374)"
font-family="MS Shell Dlg 2" font-size="12" font-weight="400" font-style="normal" 
>
<path fill-rule="evenodd" d="M17.28,0 C17.28,9.54348 9.54348,17.28 0,17.28 C-9.54348,17.28 -17.28,9.54348 -17.28,0 C-17.28,-9.54348 -9.54348,-17.28 0,-17.28 C9.54348,-17.28 17.28,-9.54348 17.28,0 "/>
</g>

<g fill="#ffffff" fill-opacity="1" stroke="#000000" stroke-opacity="1" vector-effect="non-scaling-stroke" stroke-width="1" stroke-linecap="square" stroke-linejoin="bevel" transform="matrix(0.996599,0,0,0.996599,156.466,183.374)"
font-family="Arial" font-size="22" font-weight="400" font-style="normal" 
>
<text fill="#000000" fill-opacity="1" stroke="none" xml:space="preserve" x="-9" y="8" font-family="Arial" font-size="22" font-weight="400" font-style="normal" 
 >I</text>
</g>

<g fill="#ffffff" fill-opacity="1" stroke="#000000" stroke-opacity="1" vector-effect="non-scaling-stroke" stroke-width="1" stroke-linecap="square" stroke-linejoin="bevel" transform="matrix(0.996599,0,0,0.996599,156.466,183.374)"
font-family="Arial" font-size="22" font-weight="400" font-style="normal" 
>
<text fill="#000000" fill-opacity="1" stroke="none" xml:space="preserve" x="-3" y="8" font-family="Arial" font-size="22" font-weight="400" font-style="normal" 
 >I</text>
</g>

<g fill="#ffffff" fill-opacity="1" stroke="#000000" stroke-opacity="1" vector-effect="non-scaling-stroke" stroke-width="1" stroke-linecap="square" stroke-linejoin="bevel" transform="matrix(0.996599,0,0,0.996599,156.466,183.374)"
font-family="Arial" font-size="22" font-weight="400" font-style="normal" 
>
<text fill="#000000" fill-opacity="1" stroke="none" xml:space="preserve" x="3" y="8" font-family="Arial" font-size="22" font-weight="400" font-style="normal" 
 >I</text>
</g>

<g fill="#ffffff" fill-opacity="1" stroke="none" transform="matrix(0.996599,0,0,0.996599,391.663,230.214)"
font-family="MS Shell Dlg 2" font-size="12" font-weight="400" font-style="normal" 
>
</g>

<g fill="#ffffff" fill-opacity="1" stroke="#000000" stroke-opacity="1" stroke-width="2.88" stroke-linecap="square" stroke-linejoin="bevel" transform="matrix(0.996599,0,0,0.996599,270.078,20.9286)"
font-family="MS Shell Dlg 2" font-size="12" font-weight="400" font-style="normal" 
>
<path fill-rule="evenodd" d="M18,0 C18,9.94113 9.94113,18 0,18 C-9.94113,18 -18,9.94113 -18,0 C-18,-9.94113 -9.94113,-18 0,-18 C9.94113,-18 18,-9.94113 18,0 "/>
</g>

<g fill="#ffffff" fill-opacity="1" stroke="#000000" stroke-opacity="1" vector-effect="non-scaling-stroke" stroke-width="1" stroke-linecap="square" stroke-linejoin="bevel" transform="matrix(0.996599,0,0,0.996599,270.078,20.9286)"
font-family="Arial" font-size="22" font-weight="400" font-style="normal" 
>
<text fill="#000000" fill-opacity="1" stroke="none" xml:space="preserve" x="-6" y="8" font-family="Arial" font-size="22" font-weight="400" font-style="normal" 
 >I</text>
</g>

<g fill="#ffffff" fill-opacity="1" stroke="#000000" stroke-opacity="1" vector-effect="non-scaling-stroke" stroke-width="1" stroke-linecap="square" stroke-linejoin="bevel" transform="matrix(0.996599,0,0,0.996599,270.078,20.9286)"
font-family="Arial" font-size="22" font-weight="400" font-style="normal" 
>
<text fill="#000000" fill-opacity="1" stroke="none" xml:space="preserve" x="0" y="8" font-family="Arial" font-size="22" font-weight="400" font-style="normal" 
 >I</text>
</g>

<g fill="#ffffff" fill-opacity="1" stroke="none" transform="matrix(0.996599,0,0,0.996599,391.663,230.214)"
font-family="MS Shell Dlg 2" font-size="12" font-weight="400" font-style="normal" 
>
</g>

<g fill="#ffffff" fill-opacity="1" stroke="#000000" stroke-opacity="1" stroke-width="2.88" stroke-linecap="square" stroke-linejoin="bevel" transform="matrix(0.996599,0,0,0.996599,20.9286,53.8163)"
font-family="MS Shell Dlg 2" font-size="12" font-weight="400" font-style="normal" 
>
<path fill-rule="evenodd" d="M18,0 C18,9.94113 9.94113,18 0,18 C-9.94113,18 -18,9.94113 -18,0 C-18,-9.94113 -9.94113,-18 0,-18 C9.94113,-18 18,-9.94113 18,0 "/>
</g>

<g fill="#ffffff" fill-opacity="1" stroke="#000000" stroke-opacity="1" vector-effect="non-scaling-stroke" stroke-width="1" stroke-linecap="square" stroke-linejoin="bevel" transform="matrix(0.996599,0,0,0.996599,20.9286,53.8163)"
font-family="Arial" font-size="22" font-weight="400" font-style="normal" 
>
<text fill="#000000" fill-opacity="1" stroke="none" xml:space="preserve" x="-7" y="8" font-family="Arial" font-size="22" font-weight="400" font-style="normal" 
 >V</text>
</g>

<g fill="#ffffff" fill-opacity="1" stroke="none" transform="matrix(0.996599,0,0,0.996599,391.663,230.214)"
font-family="MS Shell Dlg 2" font-size="12" font-weight="400" font-style="normal" 
>
</g>

<g fill="none" stroke="#000000" stroke-opacity="1" stroke-width="2" stroke-linecap="square" stroke-linejoin="bevel" transform="matrix(0,-0.996599,0.996599,0,156.466,183.374)"
font-family="MS Shell Dlg 2" font-size="12" font-weight="400" font-style="normal" 
>
<path fill-rule="evenodd" d="M0,-58 L0,-18"/>
</g>

<g fill="#000000" fill-opacity="1" stroke="#000000" stroke-opacity="1" stroke-width="2" stroke-linecap="square" stroke-linejoin="bevel" transform="matrix(0,-0.996599,0.996599,0,156.466,183.374)"
font-family="MS Shell Dlg 2" font-size="12" font-weight="400" font-style="normal" 
>
<path fill-rule="evenodd" d="M0,-18 L-3,-28 L0,-26 L3,-28 L0,-18"/>
</g>

<g fill="#ffffff" fill-opacity="1" stroke="none" transform="matrix(0.996599,0,0,0.996599,391.663,230.214)"
font-family="MS Shell Dlg 2" font-size="12" font-weight="400" font-style="normal" 
>
</g>

<g fill="none" stroke="#000000" stroke-opacity="1" stroke-width="2" stroke-linecap="square" stroke-linejoin="bevel" transform="matrix(0.996599,0,0,0.996599,391.663,230.214)"
font-family="MS Shell Dlg 2" font-size="12" font-weight="400" font-style="normal" 
>
<path fill-rule="evenodd" d="M-252.125,-62.4132 L-357.974,-163.593"/>
</g>

<g fill="#000000" fill-opacity="1" stroke="#000000" stroke-opacity="1" stroke-width="2" stroke-linecap="square" stroke-linejoin="bevel" transform="matrix(0.996599,0,0,0.996599,391.663,230.214)"
font-family="MS Shell Dlg 2" font-size="12" font-weight="400" font-style="normal" 
>
<path fill-rule="evenodd" d="M-357.974,-163.593 L-348.672,-158.852 L-352.191,-158.065 L-352.818,-154.514 L-357.974,-163.593"/>
</g>

<g fill="#ffffff" fill-opacity="1" stroke="none" transform="matrix(0.996599,0,0,0.996599,391.663,230.214)"
font-family="MS Shell Dlg 2" font-size="12" font-weight="400" font-style="normal" 
>
</g>

<g fill="none" stroke="#000000" stroke-opacity="1" stroke-width="2" stroke-linecap="square" stroke-linejoin="bevel" transform="matrix(0.996599,0,0,0.996599,391.663,230.214)"
font-family="MS Shell Dlg 2" font-size="12" font-weight="400" font-style="normal" 
>
<path fill-rule="evenodd" d="M-133.126,-194.092 L-223.209,-65.2884"/>
</g>

<g fill="#000000" fill-opacity="1" stroke="#000000" stroke-opacity="1" stroke-width="2" stroke-linecap="square" stroke-linejoin="bevel" transform="matrix(0.996599,0,0,0.996599,391.663,230.214)"
font-family="MS Shell Dlg 2" font-size="12" font-weight="400" font-style="normal" 
>
<path fill-rule="evenodd" d="M-223.209,-65.2884 L-219.937,-75.2024 L-218.624,-71.8441 L-215.02,-71.7637 L-223.209,-65.2884"/>
</g>

<g fill="#ffffff" fill-opacity="1" stroke="none" transform="matrix(0.996599,0,0,0.996599,391.663,230.214)"
font-family="MS Shell Dlg 2" font-size="12" font-weight="400" font-style="normal" 
>
</g>

<g fill="none" stroke="#000000" stroke-opacity="1" stroke-width="2" stroke-linecap="square" stroke-linejoin="bevel" transform="matrix(0.996599,0,0,0.996599,391.663,230.214)"
font-family="MS Shell Dlg 2" font-size="12" font-weight="400" font-style="normal" 
>
<path fill-rule="evenodd" d="M-352.815,-179.532 L-141.185,-207.468"/>
</g>

<g fill="#000000" fill-opacity="1" stroke="#000000" stroke-opacity="1" stroke-width="2" stroke-linecap="square" stroke-linejoin="bevel" transform="matrix(0.996599,0,0,0.996599,391.663,230.214)"
font-family="MS Shell Dlg 2" font-size="12" font-weight="400" font-style="normal" 
>
<path fill-rule="evenodd" d="M-141.185,-207.468 L-150.706,-203.185 L-149.116,-206.421 L-151.491,-209.133 L-141.185,-207.468"/>
</g>

<g fill="#ffffff" fill-opacity="1" stroke="none" transform="matrix(0.996599,0,0,0.996599,391.663,230.214)"
font-family="MS Shell Dlg 2" font-size="12" font-weight="400" font-style="normal" 
>
</g>

<g fill="#ffffff" fill-opacity="1" stroke="#000000" stroke-opacity="1" vector-effect="non-scaling-stroke" stroke-width="1" stroke-linecap="square" stroke-linejoin="bevel" transform="matrix(0.996599,0,0,0.996599,79.3714,123.285)"
font-family="Arial" font-size="22" font-weight="400" font-style="normal" 
>
<text fill="#000000" fill-opacity="1" stroke="none" xml:space="preserve" x="0" y="25" font-family="Arial" font-size="22" font-weight="400" font-style="normal" 
 >a</text>
</g>

<g fill="#ffffff" fill-opacity="1" stroke="none" transform="matrix(0.996599,0,0,0.996599,391.663,230.214)"
font-family="MS Shell Dlg 2" font-size="12" font-weight="400" font-style="normal" 
>
</g>

<g fill="#ffffff" fill-opacity="1" stroke="#000000" stroke-opacity="1" vector-effect="non-scaling-stroke" stroke-width="1" stroke-linecap="square" stroke-linejoin="bevel" transform="matrix(0.996599,0,0,0.996599,205.032,72.5922)"
font-family="Arial" font-size="22" font-weight="400" font-style="normal" 
>
<text fill="#000000" fill-opacity="1" stroke="none" xml:space="preserve" x="0" y="25" font-family="Arial" font-size="22" font-weight="400" font-style="normal" 
 >c</text>
</g>

<g fill="#ffffff" fill-opacity="1" stroke="none" transform="matrix(0.996599,0,0,0.996599,391.663,230.214)"
font-family="MS Shell Dlg 2" font-size="12" font-weight="400" font-style="normal" 
>
</g>

<g fill="#ffffff" fill-opacity="1" stroke="#000000" stroke-opacity="1" vector-effect="non-scaling-stroke" stroke-width="1" stroke-linecap="square" stroke-linejoin="bevel" transform="matrix(0.996599,0,0,0.996599,127.544,9.51478)"
font-family="Arial" font-size="22" font-weight="400" font-style="normal" 
>
<text fill="#000000" fill-opacity="1" stroke="none" xml:space="preserve" x="0" y="25" font-family="Arial" font-size="22" font-weight="400" font-style="normal" 
 >b</text>
</g>

<g fill="#ffffff" fill-opacity="1" stroke="none" transform="matrix(0.996599,0,0,0.996599,391.663,230.214)"
font-family="MS Shell Dlg 2" font-size="12" font-weight="400" font-style="normal" 
>
</g>

<g fill="#ffffff" fill-opacity="1" stroke="none" transform="matrix(1,0,0,1,0,0)"
font-family="MS Shell Dlg 2" font-size="8.25" font-weight="400" font-style="normal" 
>
</g>
</g>
</svg>
